<svg xmlns="http://www.w3.org/2000/svg" viewBox="0 0 176.23 175.41"><defs><style>.cls-1{fill:#aaa;}</style></defs><title>1</title><g><g><path class="cls-1" d="M88.14,0H16.25A16.25,16.25,0,0,0,0,16.25V88.31a87.31,87.31,0,0,0,26.07,61.62,88,88,0,0,0,62.05,25.48c48.58,0,88.11-39.34,88.11-87.7S136.71,0,88.14,0ZM49.78,85.82V24.6a8.35,8.35,0,0,1,16.7,0V87.49h0s0,.06,0,.09A21.69,21.69,0,1,0,95,67.2a20.3,20.3,0,0,0-4.09-.57,8.32,8.32,0,0,1-7.73-8.31V58a8.31,8.31,0,0,1,8.67-8.32c1,0,1.84.11,2.33.19A38.21,38.21,0,1,1,49.74,87.58C49.74,87,49.76,86.4,49.78,85.82Zm38.34,73.34a71.88,71.88,0,0,1-50.8-20.95,71,71,0,0,1-21.07-50.5V24.6a8.35,8.35,0,1,1,16.69,0V87.71c0,30.19,24.76,54.75,55.18,54.75s55.17-24.56,55.17-54.75A55,55,0,0,0,96,33.51c-1-.14-2.79-.25-4.77-.31a8.34,8.34,0,0,1-8.06-8.33V24.8a8.33,8.33,0,0,1,8.59-8.33c2,.06,3.76.15,4.75.26,35.68,4.15,63.47,34.4,63.47,71C160,127.11,127.75,159.16,88.12,159.16Z"/></g></g></svg>